<?xml version="1.0" encoding="utf-8"?>
<svg version="1.0" width="80.000000pt" height="80.000000pt" viewBox="0 0 80.000000 80.000000" preserveAspectRatio="xMidYMid meet" xmlns="http://www.w3.org/2000/svg">
  <g transform="translate(0.000000,80.000000) scale(0.015625,-0.015625)" fill="#000000" stroke="none">
    <path d="M1547 4236 c-74 -27 -107 -76 -107 -158 0 -60 23 -106 67 -135 24 -16 59 -19 290 -23 l263 -5 -331 -580 c-182 -319 -333 -581 -334 -583 -1 -1 -38 8 -81 20 -68 20 -102 23 -249 23 -148 0 -180 -3 -250 -23 -176 -51 -318 -136 -441 -263 -419 -434 -343 -1140 158 -1472 138 -91 273 -140 437 -156 497 -51 941 276 1043 769 26 123 21 315 -11 434 -43 161 -166 367 -275 463 l-44 38 66 116 67 116 365 -546 c259 -387 375 -553 399 -569 33 -21 42 -22 277 -22 l244 0 6 -27 c17 -81 50 -177 86 -248 254 -513 907 -687 1391 -372 505 329 583 1040 163 1476 -88 91 -170 150 -278 201 -135 63 -214 81 -374 87 -153 6 -247 -7 -367 -50 l-62 -23 -167 251 -168 250 0 132 0 131 109 4 c92 2 114 6 138 24 99 74 99 204 0 278 -27 20 -41 21 -390 24 -316 2 -367 1 -405 -14 -121 -46 -132 -226 -16 -291 33 -19 54 -23 137 -23 l97 0 0 -100 0 -100 -455 0 c-250 0 -455 2 -455 4 0 2 95 169 211 372 l211 369 -4 56 c-5 63 -32 110 -81 137 -29 15 -74 17 -437 19 -325 2 -413 0 -443 -11z m1348 -1313 c-8 -21 -72 -192 -142 -379 l-128 -341 -253 378 -252 379 395 0 395 0 -15 -37z m400 -244 c44 -67 82 -126 83 -130 2 -5 -18 -35 -45 -67 -102 -119 -178 -260 -212 -392 l-19 -75 -97 -3 c-76 -2 -96 0 -93 10 207 553 293 778 297 778 3 0 42 -55 86 -121z m-2079 -222 c4 -3 -65 -132 -152 -284 -155 -271 -159 -279 -159 -335 1 -64 19 -97 75 -135 40 -28 116 -31 165 -7 41 19 46 27 225 342 l145 253 31 -38 c122 -144 179 -351 144 -525 -48 -246 -230 -442 -471 -504 -84 -22 -225 -22 -309 0 -212 57 -390 233 -456 452 -25 81 -25 247 0 329 64 215 244 392 456 450 56 15 291 17 306 2z m2989 -2 c212 -54 396 -233 461 -450 25 -82 25 -248 0 -330 -52 -173 -182 -330 -336 -403 -107 -51 -173 -66 -280 -65 -147 1 -285 52 -403 147 -83 69 -171 201 -202 304 l-6 22 334 0 c330 0 334 0 367 23 56 38 74 71 75 136 l0 58 -178 268 c-98 147 -175 271 -170 276 29 29 243 38 338 14z m-545 -325 l80 -120 -149 0 -150 0 13 38 c25 70 104 202 121 202 2 0 41 -54 85 -120z" style="fill: rgb(11, 181, 244);"/>
  </g>
</svg>