<?xml version="1.0" encoding="utf-8"?>
<svg version="1.0" width="67.000000pt" height="67.000000pt" viewBox="0 0 67.000000 67.000000" preserveAspectRatio="xMidYMid meet" xmlns="http://www.w3.org/2000/svg">
  <g transform="translate(0.000000,67.000000) scale(0.013086,-0.013086)" fill="#000000" stroke="none">
    <path d="M976 5101 c-15 -10 -37 -32 -47 -47 -18 -28 -19 -58 -19 -629 l0 -600 -271 -270 c-149 -149 -284 -288 -300 -309 l-29 -39 0 -1422 c0 -1374 1 -1424 19 -1477 47 -138 151 -242 288 -289 55 -19 100 -19 1943 -19 1832 0 1888 1 1942 19 138 47 242 151 289 288 18 55 19 95 19 1478 l0 1422 -29 39 c-16 21 -151 160 -300 309 l-271 270 0 600 c0 571 -1 601 -19 629 -10 15 -32 37 -47 47 -28 18 -77 19 -1584 19 -1507 0 -1556 -1 -1584 -19z m2934 -1378 l0 -1098 -412 -412 -413 -413 -525 0 -525 0 -412 412 -413 413 0 1097 0 1098 1350 0 1350 0 0 -1097z m-3000 -575 l0 -223 -112 112 -113 113 110 110 c60 60 111 110 112 110 2 0 3 -100 3 -222z m3412 -110 l-112 -113 0 225 0 225 112 -113 113 -112 -113 -112z m-3150 -1950 l-562 -563 0 1125 0 1125 562 -563 563 -562 -563 -562z m3338 560 l0 -1123 -562 562 -563 563 560 560 c308 308 561 560 562 560 2 0 3 -505 3 -1122z m-825 -748 l600 -600 -1725 0 -1725 0 600 600 600 600 525 0 525 0 600 -600z" style="fill: rgb(11, 181, 244);"/>
    <path d="M2374 4510 c-391 -70 -715 -365 -830 -755 -37 -128 -45 -357 -16 -495 84 -403 382 -714 782 -816 103 -26 403 -27 500 -1 92 25 230 77 261 98 56 39 75 133 41 199 -20 38 -89 80 -131 80 -14 0 -79 -19 -145 -42 -108 -36 -134 -42 -237 -46 -146 -6 -240 13 -364 73 -183 89 -322 251 -387 450 -19 60 -23 91 -23 215 0 125 3 155 23 216 79 237 259 417 496 496 61 20 91 23 216 23 125 0 155 -3 216 -23 296 -98 503 -357 521 -651 5 -79 3 -99 -12 -128 -38 -70 -132 -95 -202 -52 -44 27 -62 64 -69 141 -23 255 -207 428 -454 428 -259 0 -450 -191 -450 -450 0 -169 75 -301 223 -394 131 -82 362 -73 481 18 43 32 49 32 92 0 93 -71 276 -96 397 -55 140 49 246 157 292 300 26 81 17 293 -19 416 -105 357 -373 625 -731 731 -78 23 -112 27 -255 30 -91 1 -188 -1 -216 -6z m255 -916 c15 -9 37 -31 50 -50 19 -27 23 -43 19 -82 -14 -140 -182 -183 -259 -66 -40 61 -18 152 47 195 36 23 106 25 143 3z" style="fill: rgb(11, 181, 244);"/>
  </g>
</svg>