<?xml version="1.0" encoding="utf-8"?>
<svg version="1.0" width="67.000000pt" height="67.000000pt" viewBox="0 0 67.000000 67.000000" preserveAspectRatio="xMidYMid meet" xmlns="http://www.w3.org/2000/svg">
  <g transform="translate(0.000000,67.000000) scale(0.013086,-0.013086)" fill="#000000" stroke="none">
    <path d="M465 5101 c-166 -48 -315 -168 -392 -316 -79 -153 -73 36 -73 -2225 0 -2261 -6 -2072 73 -2225 56 -108 154 -206 263 -263 146 -75 89 -72 1217 -72 l1007 0 0 880 0 880 -320 0 -320 0 0 400 0 400 319 0 318 0 6 383 c6 397 10 436 55 567 45 130 110 236 210 341 138 147 296 237 502 285 50 12 155 17 448 21 l382 5 0 -401 0 -401 -257 1 c-292 1 -323 -5 -360 -60 -23 -34 -23 -36 -23 -387 l0 -354 396 0 c373 0 396 -1 390 -17 -4 -10 -75 -190 -159 -400 l-152 -383 -237 0 -238 0 0 -880 0 -880 528 0 c594 0 597 1 736 72 109 57 207 155 263 263 79 153 73 -36 73 2225 0 2261 6 2072 -73 2225 -56 108 -154 206 -262 262 -153 79 37 73 -2231 72 -1892 0 -2033 -2 -2089 -18z" style="fill: rgb(11, 181, 244);"/>
  </g>
</svg>