<?xml version="1.0" encoding="utf-8"?>
<svg version="1.0" width="100.000000pt" height="100.000000pt" viewBox="0 0 100.000000 100.000000" preserveAspectRatio="xMidYMid meet" xmlns="http://www.w3.org/2000/svg">
  <g transform="translate(0.000000,100.000000) scale(0.019531,-0.019531)" fill="#000000" stroke="none">
    <path d="M4170 5100 c-13 -13 -20 -33 -20 -60 0 -34 7 -48 45 -89 l44 -47 -72 -72 -73 -72 -34 36 c-46 48 -84 64 -124 53 -40 -12 -56 -34 -56 -80 0 -31 9 -47 51 -93 48 -53 50 -58 40 -87 -6 -18 -11 -48 -11 -68 0 -34 -27 -63 -558 -594 l-557 -557 -130 95 c-72 52 -159 110 -195 129 -310 163 -692 105 -940 -143 -91 -92 -134 -160 -200 -320 -74 -179 -128 -257 -234 -338 -111 -84 -195 -114 -409 -148 -178 -28 -344 -112 -473 -240 -111 -110 -178 -219 -230 -375 -26 -80 -28 -95 -28 -260 0 -163 1 -181 27 -265 16 -49 45 -126 66 -171 80 -169 117 -213 580 -674 379 -379 447 -442 523 -488 113 -70 223 -117 345 -148 89 -23 112 -25 248 -21 129 4 162 8 235 32 206 66 375 193 484 363 81 124 116 228 149 437 19 116 47 188 108 280 82 123 169 186 360 265 163 67 229 109 324 205 246 249 302 626 139 935 -19 36 -77 123 -129 195 l-95 130 557 557 c531 531 560 558 594 558 20 0 50 5 68 11 29 10 34 8 87 -40 45 -41 63 -51 90 -51 47 0 70 14 82 48 15 44 4 76 -44 123 l-44 43 72 73 72 72 47 -44 c41 -38 55 -45 89 -45 27 0 47 7 60 20 13 13 20 33 20 60 0 34 -7 48 -44 88 l-45 48 29 42 c16 24 34 68 41 99 11 49 10 69 -10 172 -34 181 -44 204 -120 280 -36 37 -83 75 -103 84 -42 20 -264 67 -314 67 -41 0 -123 -30 -160 -59 l-27 -21 -48 45 c-41 38 -54 45 -89 45 -27 0 -47 -7 -60 -20z m505 -182 l110 -21 56 -56 56 -56 22 -112 c12 -61 19 -122 16 -136 -4 -13 -93 -110 -199 -216 -254 -253 -221 -251 -443 -28 -222 222 -224 189 25 440 171 173 208 204 237 206 6 1 60 -9 120 -21z m-1187 -1715 c-453 -453 -825 -823 -828 -823 -3 0 -14 17 -25 37 -29 54 -138 166 -198 204 -29 18 -54 34 -57 36 -2 2 367 375 820 828 l825 825 142 -142 143 -143 -822 -822z m-1148 280 c90 -29 111 -42 263 -152 l118 -85 -259 -259 -259 -259 -129 -2 c-103 -2 -143 -7 -199 -25 -98 -32 -194 -91 -267 -165 -74 -74 -119 -146 -156 -248 -24 -66 -27 -86 -27 -213 0 -127 3 -147 27 -213 37 -104 83 -175 159 -251 76 -76 147 -121 251 -159 66 -25 86 -27 213 -26 119 0 150 3 205 23 197 68 345 215 414 411 27 76 31 98 32 214 l2 129 259 259 259 259 85 -118 c111 -153 122 -172 155 -268 23 -67 27 -97 28 -185 0 -172 -54 -307 -173 -433 -80 -83 -139 -122 -273 -176 -178 -73 -263 -127 -359 -228 -127 -133 -192 -276 -219 -479 -26 -196 -85 -320 -215 -449 -103 -104 -202 -162 -331 -195 -106 -27 -254 -27 -360 1 -109 28 -264 104 -359 177 -104 79 -818 797 -879 883 -61 88 -130 234 -155 333 -28 106 -28 254 -1 360 33 130 91 228 194 331 132 131 255 189 456 215 97 13 243 59 310 97 117 68 235 181 298 286 18 30 55 107 82 172 65 157 102 214 185 293 100 95 219 153 360 175 61 10 191 -5 265 -30z m-145 -938 c303 -79 454 -424 307 -699 -34 -65 -133 -164 -198 -198 -190 -102 -416 -68 -570 86 -154 154 -188 380 -86 570 35 65 133 164 198 198 105 56 235 72 349 43z" style="fill: rgb(11, 181, 244);"/>
    <path d="M942 1600 c-26 -25 -36 -60 -27 -92 9 -30 550 -574 587 -589 57 -24 118 17 118 80 0 33 -19 55 -293 328 -273 274 -295 293 -328 293 -22 0 -44 -8 -57 -20z" style="fill: rgb(11, 181, 244);"/>
  </g>
</svg>