<?xml version="1.0" encoding="utf-8"?>
<svg version="1.0" width="50.000000pt" height="50.000000pt" viewBox="0 0 50.000000 50.000000" preserveAspectRatio="xMidYMid meet" xmlns="http://www.w3.org/2000/svg">
  <g transform="translate(0.000000,50.000000) scale(0.009766,-0.009766)" fill="#000000" stroke="none">
    <path d="M2465 5113 c-43 -11 -122 -49 -158 -75 -110 -78 -2192 -1856 -2222 -1896 -54 -73 -77 -144 -83 -250 -4 -77 -1 -104 18 -163 49 -152 176 -267 329 -300 55 -11 201 -8 234 6 16 7 17 -52 17 -1159 0 -1267 -3 -1192 55 -1246 l27 -25 1880 0 1879 0 40 42 39 42 0 1177 c0 1116 1 1176 18 1169 9 -5 58 -10 109 -13 74 -3 105 0 161 17 235 71 367 331 292 572 -34 110 -72 153 -335 379 l-245 211 0 560 c0 626 3 597 -70 642 -34 21 -47 22 -335 25 -375 4 -395 2 -449 -48 l-41 -39 -5 -181 -5 -182 -381 323 c-423 360 -417 356 -494 389 -44 19 -75 24 -155 26 -55 2 -109 0 -120 -3z m167 -315 c43 -25 2134 -1819 2156 -1850 44 -62 23 -154 -44 -199 -32 -21 -104 -25 -136 -8 -11 6 -444 374 -962 818 -517 443 -959 820 -980 836 -52 40 -134 42 -185 6 -18 -13 -454 -381 -969 -819 -516 -437 -955 -808 -976 -823 -97 -71 -226 -7 -226 112 0 32 7 56 23 78 19 27 2124 1817 2173 1848 25 16 99 16 126 1z m1588 -609 l0 -331 -72 63 c-40 34 -108 92 -150 127 l-78 65 0 204 0 203 150 0 150 0 0 -331z m-822 -828 l822 -704 0 -1173 0 -1174 -375 0 -375 0 0 696 c0 671 -1 698 -19 728 -11 17 -35 40 -53 51 -32 20 -51 20 -840 20 -803 0 -807 0 -835 -21 -15 -11 -38 -36 -50 -54 l-23 -33 0 -693 0 -694 -375 0 -375 0 0 1173 0 1172 833 707 c457 388 835 706 838 705 3 -1 375 -319 827 -706z m-228 -2456 l0 -595 -610 0 -610 0 0 595 0 595 610 0 610 0 0 -595z" style="fill: rgb(11, 181, 244);"/>
    <path d="M2062 3320 c-18 -4 -45 -18 -59 -31 -54 -51 -53 -40 -53 -569 0 -531 -1 -518 55 -570 l27 -25 530 0 529 0 40 42 39 42 0 507 c0 564 3 542 -70 587 -35 22 -40 22 -520 24 -267 1 -500 -2 -518 -7z m808 -595 l0 -295 -310 0 -310 0 0 295 0 295 310 0 310 0 0 -295z" style="fill: rgb(11, 181, 244);"/>
    <path d="M2684 1200 c-74 -17 -114 -70 -114 -153 0 -53 3 -61 39 -100 39 -42 40 -42 111 -42 71 0 72 0 111 42 36 39 39 47 39 99 0 35 -6 67 -17 86 -32 53 -105 83 -169 68z" style="fill: rgb(11, 181, 244);"/>
  </g>
</svg>