<?xml version="1.0" encoding="utf-8"?>
<svg version="1.0" width="67.000000pt" height="67.000000pt" viewBox="0 0 67.000000 67.000000" preserveAspectRatio="xMidYMid meet" xmlns="http://www.w3.org/2000/svg">
  <g transform="translate(0.000000,67.000000) scale(0.013086,-0.013086)" fill="#000000" stroke="none">
    <path d="M1610 5113 c-532 -14 -879 -133 -1156 -395 -208 -198 -336 -438 -399 -752 -49 -246 -50 -271 -50 -1411 0 -1141 1 -1154 51 -1405 70 -350 235 -627 489 -825 219 -169 431 -250 793 -301 100 -15 249 -18 1047 -21 1171 -6 1399 4 1673 73 265 66 473 184 652 371 225 233 345 524 392 948 19 170 19 2167 0 2335 -73 654 -348 1056 -862 1258 -181 71 -390 108 -683 122 -175 8 -1677 11 -1947 3z m1815 -463 c211 -11 375 -31 492 -61 231 -58 403 -162 512 -306 111 -148 170 -316 202 -578 16 -133 24 -1889 9 -2114 -27 -422 -102 -640 -280 -821 -186 -189 -388 -260 -815 -289 -192 -14 -1708 -14 -1925 -1 -413 25 -623 84 -801 228 -206 166 -310 399 -350 782 -15 144 -13 1937 2 2110 44 505 189 774 497 925 153 74 346 113 617 124 267 11 1621 11 1840 1z" style="fill: rgb(11, 181, 244);"/>
    <path d="M3855 4231 c-94 -24 -164 -81 -206 -166 -59 -121 -36 -265 57 -359 94 -93 238 -116 359 -57 69 34 112 78 148 151 30 62 30 185 0 251 -48 107 -147 176 -263 184 -36 2 -78 1 -95 -4z" style="fill: rgb(11, 181, 244);"/>
    <path d="M2385 3869 c-494 -68 -916 -415 -1073 -885 -120 -358 -81 -758 104 -1079 443 -765 1495 -891 2102 -251 172 182 285 401 339 656 25 118 25 382 0 500 -58 274 -173 488 -366 681 -192 192 -409 309 -676 364 -95 20 -332 28 -430 14z m385 -488 c304 -81 534 -315 616 -628 13 -49 18 -103 17 -198 0 -111 -4 -143 -27 -218 -91 -304 -310 -518 -611 -598 -112 -30 -298 -30 -409 0 -306 81 -536 312 -618 620 -29 108 -28 296 1 406 87 327 341 564 676 631 92 18 257 11 355 -15z" style="fill: rgb(11, 181, 244);"/>
  </g>
</svg>