<?xml version="1.0" encoding="utf-8"?>
<svg version="1.0" width="67.000000pt" height="67.000000pt" viewBox="0 0 67.000000 67.000000" preserveAspectRatio="xMidYMid meet" xmlns="http://www.w3.org/2000/svg">
  <g transform="translate(0.000000,67.000000) scale(0.007283,-0.007283)" fill="#000000" stroke="none">
    <path d="M4310 9194 c-19 -2 -87 -9 -150 -14 -141 -13 -325 -42 -485 -76 -66 -14 -131 -27 -145 -29 -14 -2 -25 -4 -25 -5 0 -1 -9 -3 -20 -4 -42 -6 -216 -58 -355 -106 -249 -88 -393 -148 -587 -247 -186 -94 -504 -279 -547 -318 -12 -11 -67 -52 -122 -92 -338 -243 -722 -627 -964 -963 -37 -52 -79 -108 -92 -123 -45 -52 -207 -325 -299 -504 -86 -167 -186 -379 -194 -413 -2 -8 -30 -90 -63 -181 -60 -168 -129 -398 -136 -454 -2 -16 -18 -101 -35 -187 -115 -581 -115 -1182 0 -1753 17 -82 32 -165 35 -183 11 -84 116 -419 186 -597 11 -27 21 -54 23 -60 9 -40 86 -207 172 -375 90 -173 273 -486 309 -525 12 -13 57 -71 100 -131 259 -352 579 -673 939 -940 66 -48 128 -95 137 -104 31 -28 322 -203 438 -263 63 -32 120 -63 125 -67 6 -4 62 -31 125 -60 63 -28 127 -58 142 -65 15 -7 42 -17 60 -20 18 -4 38 -11 43 -15 32 -25 489 -174 565 -185 14 -2 25 -4 25 -5 0 -1 11 -3 25 -5 14 -2 79 -15 145 -29 575 -122 1187 -127 1765 -14 85 16 164 31 175 32 12 1 26 6 33 10 7 4 16 5 21 1 5 -3 12 -1 16 5 4 6 10 8 15 5 5 -3 11 -1 15 5 4 6 10 8 15 5 21 -13 461 133 687 229 209 88 717 368 791 436 9 9 71 56 137 104 350 259 667 575 919 914 50 68 102 136 116 152 77 87 389 658 454 830 16 41 39 100 51 130 59 141 158 451 169 525 3 17 20 102 40 190 78 355 100 597 93 1032 -5 366 -19 502 -83 813 -20 96 -38 186 -40 200 -9 74 -114 402 -184 575 -17 44 -44 109 -58 145 -68 174 -363 708 -440 797 -13 15 -55 71 -92 123 -242 337 -625 719 -964 963 -55 40 -110 81 -122 92 -76 70 -645 380 -817 445 -45 17 -95 37 -112 45 -101 45 -468 163 -555 179 -14 2 -25 5 -25 7 0 1 -9 3 -20 4 -11 1 -76 14 -145 28 -355 73 -507 88 -885 92 -170 2 -326 1 -345 -1z m-1458 -1633 c109 -28 173 -65 254 -146 56 -56 77 -86 102 -146 61 -147 67 -297 17 -446 -36 -106 -79 -163 -180 -238 -22 -16 -42 -33 -45 -37 -11 -14 -115 -55 -168 -67 -273 -58 -545 85 -649 341 -34 85 -43 252 -19 348 47 183 223 355 406 396 84 19 197 17 282 -5z m3123 -1291 c0 -1 41 -3 90 -5 386 -14 763 -259 973 -632 22 -39 38 -74 34 -77 -3 -3 -1 -6 5 -6 5 0 10 -6 11 -12 0 -7 14 -49 30 -93 39 -105 69 -244 82 -381 6 -67 10 -513 10 -1166 l0 -1058 -475 0 -475 0 0 943 c0 938 -6 1155 -35 1267 -8 31 -17 67 -19 81 -2 13 -5 25 -5 27 -1 1 -1 4 -1 7 1 22 -78 153 -119 197 -132 144 -379 193 -598 117 -126 -43 -261 -144 -345 -257 -42 -56 -84 -141 -92 -182 -2 -14 -5 -25 -6 -25 -1 0 -3 -9 -5 -20 -1 -11 -8 -49 -14 -85 -7 -45 -11 -375 -11 -1067 l0 -1003 -480 0 -480 0 0 1690 0 1690 480 0 480 0 0 -181 0 -181 56 51 c229 209 531 349 770 355 46 2 86 5 89 8 4 4 50 2 50 -2z m-2795 -1740 l0 -1690 -475 0 -475 0 0 1690 0 1690 475 0 475 0 0 -1690z" style="fill: rgb(11, 181, 244);"/>
  </g>
</svg>