<?xml version="1.0" encoding="utf-8"?>
<svg version="1.0" width="67.000000pt" height="67.000000pt" viewBox="0 0 67.000000 67.000000" preserveAspectRatio="xMidYMid meet" xmlns="http://www.w3.org/2000/svg">
  <g transform="translate(0.000000,67.000000) scale(0.013086,-0.013086)" fill="#000000" stroke="none">
    <path d="M1605 4514 c-195 -26 -343 -153 -396 -339 -12 -42 -14 -299 -14 -1615 0 -1691 -3 -1603 53 -1714 31 -64 124 -157 188 -188 109 -55 73 -53 1124 -53 1051 0 1015 -2 1124 53 64 31 157 124 188 188 56 111 53 23 53 1714 0 1691 3 1603 -53 1714 -30 61 -123 156 -181 186 -113 57 -53 54 -1096 56 -528 1 -973 0 -990 -2z m1935 -329 c54 -33 73 -75 78 -177 l4 -88 -1061 0 -1061 0 0 68 c0 81 13 133 43 167 48 56 23 55 1032 52 915 -2 931 -2 965 -22z m80 -1625 l0 -1050 -1060 0 -1060 0 0 1050 0 1050 1060 0 1060 0 0 -1050z m-2 -1448 c-5 -102 -24 -144 -78 -177 -35 -20 -48 -20 -980 -20 -932 0 -945 0 -980 20 -54 33 -73 75 -78 177 l-4 88 1062 0 1062 0 -4 -88z" style="fill: rgb(11, 181, 244);"/>
    <path d="M254 3600 c-49 -25 -70 -59 -118 -199 -105 -300 -141 -550 -133 -905 7 -310 42 -515 133 -777 48 -140 69 -175 119 -199 71 -34 138 -20 188 39 47 56 46 87 -11 255 -94 280 -126 473 -126 746 0 273 33 470 126 745 57 168 58 199 11 256 -50 59 -119 73 -189 39z" style="fill: rgb(11, 181, 244);"/>
    <path d="M4735 3606 c-42 -18 -83 -69 -91 -113 -6 -29 3 -67 44 -187 94 -280 126 -473 126 -746 0 -273 -33 -470 -126 -745 -60 -177 -60 -206 1 -266 64 -65 159 -63 219 5 71 81 174 456 202 739 18 174 8 529 -19 686 -37 214 -111 469 -164 563 -36 65 -123 94 -192 64z" style="fill: rgb(11, 181, 244);"/>
    <path d="M803 3371 c-41 -26 -55 -49 -92 -149 -128 -346 -148 -774 -55 -1146 31 -121 86 -271 111 -298 33 -37 73 -51 130 -46 46 4 60 10 89 40 58 57 61 99 19 224 -75 225 -98 356 -98 564 0 208 23 339 98 564 42 126 39 167 -19 224 -30 31 -42 36 -93 39 -45 3 -65 0 -90 -16z" style="fill: rgb(11, 181, 244);"/>
    <path d="M4175 3380 c-35 -14 -76 -67 -86 -110 -8 -36 -5 -56 26 -146 86 -258 114 -456 95 -684 -13 -155 -31 -243 -86 -413 -49 -150 -50 -175 -11 -234 55 -83 197 -84 251 -1 23 36 73 179 100 286 77 306 77 658 0 964 -27 107 -77 250 -100 286 -34 52 -127 78 -189 52z" style="fill: rgb(11, 181, 244);"/>
  </g>
</svg>