<?xml version="1.0" encoding="utf-8"?>
<svg version="1.0" width="67.000000pt" height="67.000000pt" viewBox="0 0 67.000000 67.000000" preserveAspectRatio="xMidYMid meet" xmlns="http://www.w3.org/2000/svg">
  <g transform="translate(0.000000,67.000000) scale(0.029778,-0.029778)" fill="#000000" stroke="none">
    <path d="M602 2227 c-6 -7 -18 -42 -27 -78 l-17 -66 -61 -7 c-34 -3 -73 -7 -86 -9 -20 -2 -31 9 -61 58 -28 47 -43 61 -64 63 -64 8 -72 -40 -21 -125 l35 -57 -24 -26 c-13 -14 -36 -44 -51 -68 -19 -28 -33 -41 -44 -38 -107 32 -155 31 -166 -4 -13 -42 3 -59 81 -81 61 -18 74 -26 74 -43 0 -12 6 -49 14 -84 l13 -62 -64 -37 c-70 -41 -82 -62 -59 -98 22 -34 48 -31 117 11 l60 36 40 -37 c22 -20 51 -41 65 -47 28 -13 29 -21 9 -99 -11 -43 -13 -65 -5 -78 13 -25 44 -35 69 -21 21 11 27 26 57 154 17 72 17 76 0 95 -10 11 -32 23 -49 27 -43 9 -130 99 -145 150 -37 125 21 252 138 302 47 20 135 19 187 -2 23 -10 64 -42 93 -72 41 -45 55 -54 73 -48 27 8 156 81 180 102 25 22 21 59 -8 78 -24 15 -27 15 -77 -11 -28 -15 -60 -32 -70 -38 -14 -9 -23 -6 -50 19 -18 17 -48 40 -66 50 -25 14 -32 24 -28 39 24 87 29 134 17 149 -16 19 -64 21 -79 3z" style="fill: rgb(11, 181, 244);"/>
    <path d="M662 1710 c-12 -5 -27 -21 -32 -35 -16 -42 -13 -1134 3 -1165 l13 -25 213 -5 213 -5 104 -178 c57 -98 104 -180 104 -183 0 -2 -281 -4 -623 -4 -592 0 -625 -1 -640 -18 -21 -23 -22 -46 -1 -66 14 -14 128 -16 1109 -16 981 0 1095 2 1109 16 21 21 20 47 -2 67 -16 15 -58 17 -334 19 l-316 3 106 183 106 182 206 0 c188 0 208 2 223 18 15 17 17 73 17 598 0 485 -2 583 -14 600 -14 18 -35 19 -778 21 -446 1 -772 -2 -786 -7z m468 -235 l0 -135 -200 0 -200 0 0 135 0 135 200 0 200 0 0 -135z m500 0 l0 -135 -195 0 -195 0 0 135 0 135 195 0 195 0 0 -135z m500 0 l0 -135 -200 0 -200 0 0 135 0 135 200 0 200 0 0 -135z m-1000 -380 l0 -135 -200 0 -200 0 0 135 0 135 200 0 200 0 0 -135z m500 0 l0 -135 -195 0 -195 0 0 135 0 135 195 0 195 0 0 -135z m500 0 l0 -135 -200 0 -200 0 0 135 0 135 200 0 200 0 0 -135z m-1000 -375 l0 -140 -200 0 -200 0 0 140 0 140 200 0 200 0 0 -140z m495 0 l0 -135 -192 -3 -193 -2 0 140 0 140 193 -2 192 -3 0 -135z m505 0 l0 -140 -200 0 -200 0 0 133 c0 74 3 137 7 140 3 4 93 7 200 7 l193 0 0 -140z m-463 -247 c-2 -5 -50 -88 -107 -185 -135 -234 -122 -234 -252 -10 -53 92 -100 175 -103 185 -7 16 9 17 230 17 130 0 234 -3 232 -7z" style="fill: rgb(11, 181, 244);"/>
  </g>
</svg>